<svg
  width="24"
  height="24"
  viewBox="0 0 24 24"
  fill="none"
  xmlns="http://www.w3.org/2000/svg"
>
  <g fill="currentColor" stroke="none">
    <path
      fillRule="evenodd"
      clipRule="evenodd"
      d="M7.525 20.975c0.684 0.684 1.58 1.025 2.476 1.025h11c0.276 0 0.5-0.224 0.5-0.5s-0.224-0.5-0.5-0.5H12.45l0.025-0.025 8.5-8.5c1.366-1.367 1.366-3.583 0-4.95l-4.5-4.5c-1.367-1.367-3.583-1.367-4.95 0l-8.5 8.5c-1.367 1.367-1.367 3.583 0 4.95l4.5 4.5zm1.414-1.414c0.586 0.586 1.536 0.586 2.122 0l2.396-2.396-6.622-6.622-2.396 2.396c-0.586 0.586-0.586 1.536 0 2.122l4.5 4.5zm-1.396-9.725l5.396-5.396c0.586-0.586 1.536-0.586 2.122 0l4.5 4.5c0.586 0.586 0.586 1.536 0 2.122l-5.396 5.396-6.622-6.622zm-3.34-6.616c-0.097-0.294-0.512-0.294-0.608 0L3.757 4.553a0.5 0.5 0 01-0.195 0.205l-1.332 0.438c-0.294 0.097-0.294 0.512 0 0.608l1.332 0.438a0.5 0.5 0 010.205l0.438 1.332c0.097 0.294 0.512 0.294 0.608 0l0.438-1.332a0.5 0.5 0 010.205l1.332-0.438c0.294-0.097 0.294-0.512 0-0.608L5.447 4.757a0.5 0.5 0 01-0.205-0.205L4.804 3.22z"
      fill="#4A4A4A"
    />
    <path
      d="M18.756 16.176c0.078-0.235 0.41-0.235 0.488 0l0.35 1.066a0.5 0.5 0 010.164l1.066 0.35c0.235 0.078 0.235 0.41 0 0.488l-1.066 0.35a0.5 0.5 0 01-0.164 0.164l-0.35 1.066c-0.078 0.235-0.41 0.235-0.488 0l-0.35-1.066a0.5 0.5 0 01-0.164-0.164l-1.066-0.35c-0.235-0.078-0.235-0.41 0-0.488l1.066-0.35a0.5 0.5 0 010.164l0.35-1.066z"
      fill="#FFAB00"
    />
    <path
      d="M3.683 19.132c-0.058-0.176-0.307-0.176-0.365 0l-0.263 0.8a0.5 0.5 0 01-0.489 0.277l-0.8 0.263c-0.176 0.058-0.176 0.307 0 0.365l0.8 0.263a0.5 0.5 0 01.277 0.489l0.263 0.8c0.058 0.176 0.307 0.176 0.365 0l0.263-0.8a0.5 0.5 0 01.277-0.489l0.8-0.263c0.176-0.058 0.176-0.307 0-0.365l-0.8-0.263a0.5 0.5 0 01-0.489-0.277l-0.263-0.8z"
      fill="#FF5722"
    />
  </g>
</svg>
